<svg xmlns="http://www.w3.org/2000/svg" viewBox="0 0 45 47" width="45" height="47"><rect x="7" y="0" width="3" height="5" fill="#cccccc" opacity="0.1"/><rect x="14" y="0" width="3" height="5" fill="#cccccc" opacity="0.1"/><rect x="21" y="0" width="3" height="5" fill="#cccccc" opacity="0.1"/><rect x="28" y="0" width="3" height="5" fill="#cccccc" opacity="0.1"/><rect x="35" y="0" width="3" height="5" fill="#cccccc" opacity="0.1"/><rect x="0" y="7" width="3" height="5" fill="#cccccc" opacity="0.1"/><rect x="7" y="7" width="3" height="5" fill="#cccccc" opacity="0.1"/><rect x="14" y="7" width="3" height="5" fill="currentColor"/><rect x="21" y="7" width="3" height="5" fill="#cccccc" opacity="0.1"/><rect x="28" y="7" width="3" height="5" fill="#cccccc" opacity="0.1"/><rect x="35" y="7" width="3" height="5" fill="#cccccc" opacity="0.1"/><rect x="42" y="7" width="3" height="5" fill="#cccccc" opacity="0.1"/><rect x="0" y="14" width="3" height="5" fill="#cccccc" opacity="0.1"/><rect x="7" y="14" width="3" height="5" fill="#cccccc" opacity="0.1"/><rect x="14" y="14" width="3" height="5" fill="#cccccc" opacity="0.1"/><rect x="21" y="14" width="3" height="5" fill="currentColor"/><rect x="28" y="14" width="3" height="5" fill="#cccccc" opacity="0.1"/><rect x="35" y="14" width="3" height="5" fill="#cccccc" opacity="0.1"/><rect x="42" y="14" width="3" height="5" fill="#cccccc" opacity="0.1"/><rect x="0" y="21" width="3" height="5" fill="#cccccc" opacity="0.1"/><rect x="7" y="21" width="3" height="5" fill="#cccccc" opacity="0.1"/><rect x="14" y="21" width="3" height="5" fill="#cccccc" opacity="0.1"/><rect x="21" y="21" width="3" height="5" fill="#cccccc" opacity="0.1"/><rect x="28" y="21" width="3" height="5" fill="currentColor"/><rect x="35" y="21" width="3" height="5" fill="#cccccc" opacity="0.1"/><rect x="42" y="21" width="3" height="5" fill="#cccccc" opacity="0.1"/><rect x="0" y="28" width="3" height="5" fill="#cccccc" opacity="0.1"/><rect x="7" y="28" width="3" height="5" fill="#cccccc" opacity="0.1"/><rect x="14" y="28" width="3" height="5" fill="#cccccc" opacity="0.1"/><rect x="21" y="28" width="3" height="5" fill="currentColor"/><rect x="28" y="28" width="3" height="5" fill="#cccccc" opacity="0.1"/><rect x="35" y="28" width="3" height="5" fill="#cccccc" opacity="0.1"/><rect x="42" y="28" width="3" height="5" fill="#cccccc" opacity="0.1"/><rect x="0" y="35" width="3" height="5" fill="#cccccc" opacity="0.1"/><rect x="7" y="35" width="3" height="5" fill="#cccccc" opacity="0.1"/><rect x="14" y="35" width="3" height="5" fill="currentColor"/><rect x="21" y="35" width="3" height="5" fill="#cccccc" opacity="0.1"/><rect x="28" y="35" width="3" height="5" fill="#cccccc" opacity="0.1"/><rect x="35" y="35" width="3" height="5" fill="#cccccc" opacity="0.1"/><rect x="42" y="35" width="3" height="5" fill="#cccccc" opacity="0.1"/><rect x="7" y="42" width="3" height="5" fill="#cccccc" opacity="0.1"/><rect x="14" y="42" width="3" height="5" fill="#cccccc" opacity="0.1"/><rect x="21" y="42" width="3" height="5" fill="#cccccc" opacity="0.1"/><rect x="28" y="42" width="3" height="5" fill="#cccccc" opacity="0.1"/><rect x="35" y="42" width="3" height="5" fill="#cccccc" opacity="0.1"/></svg>