<svg xmlns="http://www.w3.org/2000/svg" viewBox="0 0 70 70" width="70" height="70"><rect x="13.5" y="1.5" width="3" height="7" fill="#cccccc" opacity="0.1"/><rect x="23.5" y="1.5" width="3" height="7" fill="#cccccc" opacity="0.1"/><rect x="33.5" y="1.5" width="3" height="7" fill="currentColor"/><rect x="43.5" y="1.5" width="3" height="7" fill="#cccccc" opacity="0.1"/><rect x="53.5" y="1.5" width="3" height="7" fill="#cccccc" opacity="0.1"/><rect x="3.5" y="11.5" width="3" height="7" fill="#cccccc" opacity="0.1"/><rect x="13.5" y="11.5" width="3" height="7" fill="#cccccc" opacity="0.1"/><rect x="23.5" y="11.5" width="3" height="7" fill="currentColor"/><rect x="33.5" y="11.5" width="3" height="7" fill="#cccccc" opacity="0.1"/><rect x="43.5" y="11.5" width="3" height="7" fill="currentColor"/><rect x="53.5" y="11.5" width="3" height="7" fill="#cccccc" opacity="0.1"/><rect x="63.5" y="11.5" width="3" height="7" fill="#cccccc" opacity="0.1"/><rect x="3.5" y="21.5" width="3" height="7" fill="#cccccc" opacity="0.1"/><rect x="13.5" y="21.5" width="3" height="7" fill="currentColor"/><rect x="23.5" y="21.5" width="3" height="7" fill="#cccccc" opacity="0.1"/><rect x="33.5" y="21.5" width="3" height="7" fill="#cccccc" opacity="0.1"/><rect x="43.5" y="21.5" width="3" height="7" fill="#cccccc" opacity="0.1"/><rect x="53.5" y="21.5" width="3" height="7" fill="currentColor"/><rect x="63.5" y="21.5" width="3" height="7" fill="#cccccc" opacity="0.1"/><rect x="3.5" y="31.5" width="3" height="7" fill="currentColor"/><rect x="13.5" y="31.5" width="3" height="7" fill="currentColor"/><rect x="23.5" y="31.5" width="3" height="7" fill="#cccccc" opacity="0.1"/><rect x="33.5" y="31.5" width="3" height="7" fill="#cccccc" opacity="0.1"/><rect x="43.5" y="31.5" width="3" height="7" fill="#cccccc" opacity="0.1"/><rect x="53.5" y="31.5" width="3" height="7" fill="currentColor"/><rect x="63.5" y="31.5" width="3" height="7" fill="currentColor"/><rect x="3.5" y="41.5" width="3" height="7" fill="#cccccc" opacity="0.1"/><rect x="13.5" y="41.5" width="3" height="7" fill="currentColor"/><rect x="23.5" y="41.5" width="3" height="7" fill="#cccccc" opacity="0.1"/><rect x="33.5" y="41.5" width="3" height="7" fill="#cccccc" opacity="0.1"/><rect x="43.5" y="41.5" width="3" height="7" fill="#cccccc" opacity="0.1"/><rect x="53.5" y="41.5" width="3" height="7" fill="currentColor"/><rect x="63.5" y="41.5" width="3" height="7" fill="#cccccc" opacity="0.1"/><rect x="3.5" y="51.5" width="3" height="7" fill="#cccccc" opacity="0.1"/><rect x="13.5" y="51.5" width="3" height="7" fill="currentColor"/><rect x="23.5" y="51.5" width="3" height="7" fill="#cccccc" opacity="0.1"/><rect x="33.5" y="51.5" width="3" height="7" fill="currentColor"/><rect x="43.5" y="51.5" width="3" height="7" fill="#cccccc" opacity="0.1"/><rect x="53.5" y="51.5" width="3" height="7" fill="currentColor"/><rect x="63.5" y="51.5" width="3" height="7" fill="#cccccc" opacity="0.1"/><rect x="13.5" y="61.5" width="3" height="7" fill="currentColor"/><rect x="23.5" y="61.5" width="3" height="7" fill="currentColor"/><rect x="33.5" y="61.5" width="3" height="7" fill="currentColor"/><rect x="43.5" y="61.5" width="3" height="7" fill="currentColor"/><rect x="53.5" y="61.5" width="3" height="7" fill="currentColor"/></svg>