<svg xmlns="http://www.w3.org/2000/svg" viewBox="0 0 56 56" width="56" height="56"><rect x="10" y="2" width="4" height="4" fill="currentColor" opacity="0.1"/><rect x="18" y="2" width="4" height="4" fill="currentColor" opacity="0.1"/><rect x="26" y="2" width="4" height="4" fill="currentColor" opacity="0.1"/><rect x="34" y="2" width="4" height="4" fill="currentColor" opacity="0.1"/><rect x="42" y="2" width="4" height="4" fill="currentColor" opacity="0.1"/><rect x="2" y="10" width="4" height="4" fill="currentColor" opacity="0.1"/><rect x="10" y="10" width="4" height="4" fill="currentColor" opacity="0.1"/><rect x="18" y="10" width="4" height="4" fill="currentColor" opacity="0.1"/><rect x="26" y="10" width="4" height="4" fill="currentColor"/><rect x="34" y="10" width="4" height="4" fill="currentColor"/><rect x="42" y="10" width="4" height="4" fill="currentColor" opacity="0.1"/><rect x="50" y="10" width="4" height="4" fill="currentColor" opacity="0.1"/><rect x="2" y="18" width="4" height="4" fill="currentColor" opacity="0.1"/><rect x="10" y="18" width="4" height="4" fill="currentColor" opacity="0.1"/><rect x="18" y="18" width="4" height="4" fill="currentColor"/><rect x="26" y="18" width="4" height="4" fill="currentColor"/><rect x="34" y="18" width="4" height="4" fill="currentColor" opacity="0.1"/><rect x="42" y="18" width="4" height="4" fill="currentColor" opacity="0.1"/><rect x="50" y="18" width="4" height="4" fill="currentColor" opacity="0.1"/><rect x="2" y="26" width="4" height="4" fill="currentColor" opacity="0.1"/><rect x="10" y="26" width="4" height="4" fill="currentColor"/><rect x="18" y="26" width="4" height="4" fill="currentColor"/><rect x="26" y="26" width="4" height="4" fill="currentColor"/><rect x="34" y="26" width="4" height="4" fill="currentColor"/><rect x="42" y="26" width="4" height="4" fill="currentColor" opacity="0.1"/><rect x="50" y="26" width="4" height="4" fill="currentColor" opacity="0.1"/><rect x="2" y="34" width="4" height="4" fill="currentColor" opacity="0.1"/><rect x="10" y="34" width="4" height="4" fill="currentColor" opacity="0.1"/><rect x="18" y="34" width="4" height="4" fill="currentColor"/><rect x="26" y="34" width="4" height="4" fill="currentColor"/><rect x="34" y="34" width="4" height="4" fill="currentColor" opacity="0.1"/><rect x="42" y="34" width="4" height="4" fill="currentColor" opacity="0.1"/><rect x="50" y="34" width="4" height="4" fill="currentColor" opacity="0.1"/><rect x="2" y="42" width="4" height="4" fill="currentColor" opacity="0.1"/><rect x="10" y="42" width="4" height="4" fill="currentColor"/><rect x="18" y="42" width="4" height="4" fill="currentColor" opacity="0.1"/><rect x="26" y="42" width="4" height="4" fill="currentColor" opacity="0.1"/><rect x="34" y="42" width="4" height="4" fill="currentColor" opacity="0.1"/><rect x="42" y="42" width="4" height="4" fill="currentColor" opacity="0.1"/><rect x="50" y="42" width="4" height="4" fill="currentColor" opacity="0.1"/><rect x="10" y="50" width="4" height="4" fill="currentColor" opacity="0.1"/><rect x="18" y="50" width="4" height="4" fill="currentColor" opacity="0.1"/><rect x="26" y="50" width="4" height="4" fill="currentColor" opacity="0.1"/><rect x="34" y="50" width="4" height="4" fill="currentColor" opacity="0.1"/><rect x="42" y="50" width="4" height="4" fill="currentColor" opacity="0.1"/></svg>